<svg xmlns="http://www.w3.org/2000/svg" width="24" height="23.999" viewBox="0 0 24 23.999">
  <path id="User_-_Male" data-name="User - Male" d="M18,19V17a5.223,5.223,0,0,0,1.872-2.952c.354-.027.91-.352,1.074-1.635a1.17,1.17,0,0,0-.474-1.2A5.292,5.292,0,0,0,21,9c0-2.428-.953-4.5-3-4.5A3.181,3.181,0,0,0,15,3C10.758,3,9,5.722,9,9a5.96,5.96,0,0,0,.528,2.214,1.171,1.171,0,0,0-.474,1.2c.164,1.283.72,1.608,1.074,1.635A5.223,5.223,0,0,0,12,17v2c-1,3-9,1-9,8H27C27,20,19,22,18,19Z" transform="translate(-3 -3.001)"/>
</svg>
