<?xml version="1.0"?><svg fill="#000000" xmlns="http://www.w3.org/2000/svg"  viewBox="0 0 24 24" width="24px" height="24px">    <path d="M19,2c0,0.552-0.448,1-1,1s-1-0.448-1-1h-2c0,0.552-0.448,1-1,1s-1-0.448-1-1h-2c0,0.552-0.448,1-1,1S9,2.552,9,2H7 c0,0.552-0.448,1-1,1S5,2.552,5,2H4C3.448,2,3,2.448,3,3v18c0,0.552,0.448,1,1,1h1c0-0.552,0.448-1,1-1s1,0.448,1,1h2 c0-0.552,0.448-1,1-1s1,0.448,1,1h2c0-0.552,0.448-1,1-1s1,0.448,1,1h2c0-0.552,0.448-1,1-1s1,0.448,1,1h1c0.552,0,1-0.448,1-1V3 c0-0.552-0.448-1-1-1H19z M17,17H7c-0.552,0-1-0.448-1-1v0c0-0.552,0.448-1,1-1h10c0.552,0,1,0.448,1,1v0 C18,16.552,17.552,17,17,17z M17,13H7c-0.552,0-1-0.448-1-1v0c0-0.552,0.448-1,1-1h10c0.552,0,1,0.448,1,1v0 C18,12.552,17.552,13,17,13z M17,9H7C6.448,9,6,8.552,6,8v0c0-0.552,0.448-1,1-1h10c0.552,0,1,0.448,1,1v0C18,8.552,17.552,9,17,9z"/></svg>