<svg xmlns="http://www.w3.org/2000/svg" width="26.276" height="26.276" viewBox="0 0 26.276 26.276">
  <path id="Dashboard" d="M15.123,14.759H9.284A3.288,3.288,0,0,1,6,11.474V9.284A3.288,3.288,0,0,1,9.284,6h5.839a3.288,3.288,0,0,1,3.284,3.284v2.19A3.288,3.288,0,0,1,15.123,14.759Zm0,17.517H9.284A3.288,3.288,0,0,1,6,28.991V19.5a3.288,3.288,0,0,1,3.284-3.284h5.839A3.288,3.288,0,0,1,18.408,19.5v9.488A3.288,3.288,0,0,1,15.123,32.276Zm13.868,0H23.152a3.288,3.288,0,0,1-3.284-3.284V26.8a3.288,3.288,0,0,1,3.284-3.284h5.839A3.288,3.288,0,0,1,32.276,26.8v2.19A3.288,3.288,0,0,1,28.991,32.276Zm0-10.218H23.152a3.288,3.288,0,0,1-3.284-3.284V9.284A3.288,3.288,0,0,1,23.152,6h5.839a3.288,3.288,0,0,1,3.284,3.284v9.488A3.288,3.288,0,0,1,28.991,22.057Z" transform="translate(-6 -6)"/>
</svg>
